# xmcd
#
# Track frame offsets: 
#        150
#        17660
#        37620
#        55835
#        73902
#        91335
#        108395
#        127317
#        146025
#        163537
#
# Disc length: 2387 seconds
#
# Revision: 3
# Processed by: cddbd v1.5.2PL0 Copyright (c) Steve Scherf et al.
# Submitted via: ExactAudioCopy v0.99pb5
#
DISCID=8709510a
DTITLE=Willie Nelson - Without a Song
DYEAR=1983
DGENRE=Country
TTITLE0=Without a Song
TTITLE1=Once in a While
TTITLE2=Autumn Leaves
TTITLE3=I Can't Begin to Tell You
TTITLE4=Harbor Lights
TTITLE5=Golden Earrings
TTITLE6=You'll Never Know
TTITLE7=To Each His Own
TTITLE8=As Time Goes By
TTITLE9=Dreamer's Holiday
EXTD=
EXTT0=
EXTT1=
EXTT2=
EXTT3=
EXTT4=
EXTT5=
EXTT6=
EXTT7=
EXTT8=
EXTT9=
PLAYORDER=
